<svg width="50" height="50" viewBox="0 0 50 50" fill="none" xmlns="http://www.w3.org/2000/svg">
<rect width="50" height="50" fill="white"/>
<path d="M25.0001 1.49121L9.33993 17.1484L10.586 18.3984L25.0001 3.97754L39.4142 18.3984L40.6642 17.1484L25.0001 1.49121ZM25.0001 6.71191L13.379 18.3301V30.3711H36.6212V18.3301L25.0001 6.71191ZM25.0001 14.7461C28.9259 14.7461 32.129 17.9492 32.129 21.875C32.129 25.8008 28.9259 29.0039 25.0001 29.0039C21.0743 29.0039 17.8712 25.8008 17.8712 21.875C17.8712 17.9492 21.0743 14.7461 25.0001 14.7461ZM24.1212 16.5723C21.5626 16.9922 19.629 19.1992 19.629 21.875C19.629 24.8535 22.0216 27.2461 25.0001 27.2461C27.9786 27.2461 30.3712 24.8535 30.3712 21.875C30.3712 19.1992 28.4376 16.9922 25.879 16.5723V20.3223L27.1583 19.5605L28.0567 21.0645L24.1212 23.4277V16.5723ZM46.3282 26.9238C44.5313 28.4766 43.3204 28.1934 41.5528 27.9785C41.2599 30.2344 41.8751 32.793 42.7442 34.6387C42.2657 34.7266 41.7774 34.8926 41.3087 35.1367C39.7364 35.9473 38.8575 37.3633 39.336 38.291C39.8243 39.2188 41.4845 39.3066 43.0567 38.4961C44.629 37.6856 45.5079 36.2695 45.0294 35.3418C44.3458 33.623 43.3985 31.543 43.252 29.9902C44.8536 30.0488 46.4942 29.5312 47.6954 28.0176L46.3282 26.9238ZM20.9962 32.1289V40.1953C21.2892 40.1562 21.5821 40.1367 21.8751 40.1367C22.3145 40.1367 22.461 40.1562 22.754 40.1953V32.1289H20.9962ZM27.2462 32.1289V35.9863C27.5001 35.957 27.7638 35.9375 28.0274 35.9375C28.3595 35.9375 28.6817 35.957 29.004 36.0156V32.1289H27.2462ZM9.29892 37.4707C7.94247 39.2969 7.23446 41.8164 7.09091 43.8574C6.63192 43.6914 6.1163 43.6035 5.58993 43.584C3.81942 43.5254 2.35556 44.3262 2.3204 45.3711C2.2872 46.416 3.69247 47.3145 5.46103 47.373C7.23056 47.4316 8.69345 46.6309 8.7286 45.5859C8.99325 43.7305 9.16708 41.5039 9.80478 40.0488C11.172 40.8887 12.8614 41.2402 14.6485 40.5078L13.9845 38.8867C11.6895 39.375 10.713 38.5156 9.29892 37.4707ZM28.0274 37.6953C27.5392 37.6953 26.6602 37.793 26.3868 37.9102C26.2599 37.9688 26.1915 38.0273 26.172 38.0469V43.2031C26.1915 43.2227 26.2599 43.2812 26.3868 43.3398C26.6602 43.457 27.5392 43.5547 28.0274 43.5547C28.5157 43.5547 29.3946 43.457 29.6681 43.3398C29.795 43.2812 29.8634 43.2227 29.8829 43.2031V38.0469C29.8634 38.0273 29.795 37.9688 29.6681 37.9102C29.3946 37.793 28.5157 37.6953 28.0274 37.6953ZM21.8751 41.8945C21.3868 41.8945 20.5079 41.9922 20.2345 42.1094C20.1075 42.168 20.0392 42.2266 20.0196 42.2461V47.4023C20.0392 47.4219 20.1075 47.4805 20.2345 47.5391C20.5079 47.6562 21.3868 47.7539 21.8751 47.7539C22.3634 47.7539 23.2423 47.6562 23.5157 47.5391C23.6427 47.4805 23.711 47.4219 23.7306 47.4023V42.2461C23.711 42.2266 23.6427 42.168 23.5157 42.1094C23.2423 41.9922 22.3634 41.8945 21.8751 41.8945Z" fill="#0E6FF0"/>
</svg>
