<svg width="105" height="105" viewBox="0 0 105 105" fill="none" xmlns="http://www.w3.org/2000/svg">
<path d="M52.4996 3.13155L19.6133 36.0117L22.2301 38.6367L52.4996 8.35283L82.7692 38.6367L85.3942 36.0117L52.4996 3.13155ZM52.4996 14.095L28.0954 38.4932V63.7793H76.9039V38.4932L52.4996 14.095ZM52.4996 30.9668C60.7438 30.9668 67.4703 37.6934 67.4703 45.9375C67.4703 54.1816 60.7438 60.9082 52.4996 60.9082C44.2555 60.9082 37.5289 54.1816 37.5289 45.9375C37.5289 37.6934 44.2555 30.9668 52.4996 30.9668ZM50.6539 34.8018C45.2809 35.6836 41.2203 40.3184 41.2203 45.9375C41.2203 52.1924 46.2448 57.2168 52.4996 57.2168C58.7545 57.2168 63.7789 52.1924 63.7789 45.9375C63.7789 40.3184 59.7184 35.6836 54.3453 34.8018V42.6768L57.0319 41.0772L58.9186 44.2354L50.6539 49.1982V34.8018ZM97.2887 56.54C93.5153 59.8008 90.9723 59.2061 87.2604 58.7549C86.6451 63.4922 87.9371 68.8652 89.7623 72.7412C88.7575 72.9258 87.7321 73.2744 86.7477 73.7871C83.4459 75.4893 81.6002 78.4629 82.6051 80.4111C83.6305 82.3594 87.1168 82.544 90.4186 80.8418C93.7203 79.1397 95.566 76.166 94.5612 74.2178C93.1256 70.6084 91.1364 66.2402 90.8287 62.9795C94.192 63.1025 97.6373 62.0156 100.16 58.8369L97.2887 56.54ZM44.0914 67.4707V84.4102C44.7067 84.3281 45.3219 84.2871 45.9371 84.2871C46.86 84.2871 47.1676 84.3281 47.7828 84.4102V67.4707H44.0914ZM57.2164 67.4707V75.5713C57.7496 75.5098 58.3034 75.4688 58.8571 75.4688C59.5543 75.4688 60.2311 75.5098 60.9078 75.6328V67.4707H57.2164ZM19.5272 78.6885C16.6787 82.5234 15.1918 87.8145 14.8904 92.1006C13.9265 91.752 12.8437 91.5674 11.7383 91.5264C8.02025 91.4033 4.94613 93.085 4.8723 95.2793C4.80258 97.4736 7.75365 99.3604 11.4676 99.4834C15.1836 99.6065 18.2557 97.9248 18.3295 95.7305C18.8853 91.834 19.2503 87.1582 20.5895 84.1025C23.4606 85.8662 27.0084 86.6045 30.7614 85.0664L29.3668 81.6621C24.5475 82.6875 22.4967 80.8828 19.5272 78.6885ZM58.8571 79.1602C57.8317 79.1602 55.986 79.3652 55.4118 79.6113C55.1452 79.7344 55.0016 79.8574 54.9606 79.8984V90.7266C55.0016 90.7676 55.1452 90.8906 55.4118 91.0137C55.986 91.2598 57.8317 91.4649 58.8571 91.4649C59.8825 91.4649 61.7282 91.2598 62.3024 91.0137C62.569 90.8906 62.7125 90.7676 62.7536 90.7266V79.8984C62.7125 79.8574 62.569 79.7344 62.3024 79.6113C61.7282 79.3652 59.8825 79.1602 58.8571 79.1602ZM45.9371 87.9785C44.9118 87.9785 43.066 88.1836 42.4918 88.4297C42.2252 88.5527 42.0817 88.6758 42.0407 88.7168V99.5449C42.0817 99.5859 42.2252 99.709 42.4918 99.832C43.066 100.078 44.9118 100.283 45.9371 100.283C46.9625 100.283 48.8082 100.078 49.3825 99.832C49.6491 99.709 49.7926 99.5859 49.8336 99.5449V88.7168C49.7926 88.6758 49.6491 88.5527 49.3825 88.4297C48.8082 88.1836 46.9625 87.9785 45.9371 87.9785Z" fill="#1E1E1E"/>
</svg>
