<svg width="374" height="82" viewBox="0 0 374 82" fill="none" xmlns="http://www.w3.org/2000/svg">
<path d="M14.3239 21.5427C14.2398 21.4165 14.0925 21.2903 13.8822 21.1641C13.7139 21.0379 13.5036 20.9327 13.2512 20.8486C12.9988 20.7644 12.7464 20.7434 12.494 20.7855C12.2837 20.7855 12.1154 20.8696 11.9892 21.0379C11.863 21.2482 11.6316 22.0475 11.2951 23.4357C11.0006 24.7818 10.6851 26.4645 10.3486 28.4838C10.012 30.503 9.71755 32.7536 9.46514 35.2356C9.21274 37.7175 9.08654 40.1785 9.08654 42.6184C9.08654 44.3852 9.14964 46.2362 9.27584 48.1713C9.40204 50.0643 9.54928 51.8101 9.71755 53.4087C9.92788 55.0072 10.1593 56.3323 10.4117 57.384C10.7061 58.3936 11.0006 58.8984 11.2951 58.8984C11.5895 58.9405 11.9892 58.625 12.494 57.9519C12.9988 57.2788 13.4826 56.5216 13.9453 55.6803C14.4081 54.7969 14.8287 53.9555 15.2073 53.1562C15.628 52.3149 15.9014 51.747 16.0276 51.4525C16.1959 50.9898 16.4273 50.485 16.7218 49.9381C17.0162 49.3492 17.3107 48.8233 17.6052 48.3606C17.8996 47.8558 18.1941 47.4561 18.4886 47.1617C18.7831 46.8251 19.0355 46.6569 19.2458 46.6569C19.4982 46.6569 19.7085 46.9093 19.8768 47.4141C20.0871 47.9189 20.2344 48.5288 20.3185 49.244C20.4447 49.9171 20.5288 50.6322 20.5709 51.3894C20.613 52.1046 20.634 52.6935 20.634 53.1562C20.634 53.9976 20.4657 55.0493 20.1292 56.3113C19.8347 57.5733 19.4351 58.7933 18.9303 59.9712C18.4675 61.149 17.9417 62.1587 17.3528 63C16.8059 63.8413 16.28 64.241 15.7752 64.1989C15.2704 64.1569 14.4501 63.8624 13.3143 63.3155C12.2206 62.7686 11.0847 62.1376 9.90685 61.4225C8.72897 60.7073 7.65625 59.9922 6.6887 59.277C5.72115 58.5619 5.15325 57.994 4.98498 57.5733C4.77464 57.1947 4.45913 56.2903 4.03846 54.86C3.65986 53.3876 3.26022 51.6208 2.83954 49.5595C2.41887 47.4982 2.04026 45.2266 1.70373 42.7446C1.40925 40.2626 1.26202 37.7596 1.26202 35.2356C1.26202 32.7115 1.28305 30.2296 1.32512 27.7897C1.36719 25.3077 1.45132 23.0992 1.57752 21.1641C1.74579 19.229 1.9982 17.6725 2.33474 16.4946C2.67127 15.2746 3.13401 14.6226 3.72296 14.5385C4.90084 14.4123 6.18389 14.4964 7.57212 14.7909C8.96034 15.0433 10.3486 15.4429 11.7368 15.9898C13.125 16.5367 14.4501 17.1677 15.7121 17.8828C17.0162 18.5559 18.1731 19.271 19.1827 20.0282C20.1923 20.7434 20.9916 21.4375 21.5805 22.1106C22.2115 22.7837 22.5481 23.3516 22.5901 23.8143C22.6322 24.5294 22.5481 25.3287 22.3377 26.2121C22.1274 27.0956 21.875 27.9579 21.5805 28.7993C21.2861 29.5986 20.9706 30.3347 20.634 31.0078C20.3395 31.6388 20.1082 32.0805 19.9399 32.3329C19.7296 32.6274 19.4772 32.9429 19.1827 33.2794C18.8882 33.616 18.5727 33.9105 18.2362 34.1629C17.9417 34.4153 17.6262 34.6046 17.2897 34.7308C16.9952 34.8149 16.7218 34.7518 16.4694 34.5415C16.3011 34.4153 16.1328 34.0156 15.9645 33.3425C15.8383 32.6695 15.6911 31.8702 15.5228 30.9447C15.3966 30.0192 15.2704 29.0306 15.1442 27.979C15.018 26.8852 14.8918 25.8756 14.7656 24.9501C14.6815 24.0246 14.5974 23.2464 14.5132 22.6154C14.4291 21.9844 14.366 21.6268 14.3239 21.5427ZM49.7867 45.3948C49.8708 45.5631 49.8708 46.0258 49.7867 46.7831C49.7025 47.4982 49.5553 48.2764 49.345 49.1178C49.1767 49.9591 48.9874 50.7584 48.777 51.5156C48.6088 52.2308 48.4826 52.6514 48.3984 52.7776C48.1881 52.7776 47.9567 52.7776 47.7043 52.7776C47.494 52.7356 47.2837 52.7145 47.0733 52.7145C46.863 52.7145 46.6316 52.6935 46.3792 52.6514C46.253 54.4183 46.1058 56.0799 45.9375 57.6364C45.7692 59.1508 45.601 60.4549 45.4327 61.5487C45.2644 62.6424 45.1172 63.5048 44.991 64.1358C44.8648 64.8089 44.7386 65.1454 44.6124 65.1454C44.2758 65.2296 43.8972 65.0823 43.4766 64.7037C43.098 64.3672 42.7194 63.9465 42.3407 63.4417C41.9621 62.9369 41.6256 62.4111 41.3311 61.8642C41.0367 61.2752 40.8684 60.7704 40.8263 60.3498C40.7843 59.5084 40.7422 58.625 40.7001 57.6995C40.7001 56.732 40.6791 55.8486 40.637 55.0493C40.595 54.1238 40.5739 53.1983 40.5739 52.2728C39.7746 52.1887 38.9964 52.1256 38.2392 52.0835C37.482 51.9994 36.7248 51.9153 35.9675 51.8311C35.5889 51.747 35.2103 51.7049 34.8317 51.7049C34.4531 51.6629 34.0956 51.5998 33.759 51.5156C33.6749 53.4507 33.5907 55.2386 33.5066 56.8792C33.4225 58.5198 33.3173 59.9501 33.1911 61.1701C33.107 62.39 33.0018 63.3365 32.8756 64.0096C32.7915 64.7248 32.6863 65.1034 32.5601 65.1454C32.2236 65.1875 31.8239 65.0403 31.3612 64.7037C30.8984 64.3672 30.4567 63.9465 30.0361 63.4417C29.6575 62.9369 29.2999 62.4111 28.9633 61.8642C28.6689 61.3173 28.5006 60.8335 28.4585 60.4129C28.3744 59.3191 28.2903 58.2043 28.2061 57.0685C28.122 55.8906 28.0379 54.8179 27.9537 53.8504C27.8696 52.7145 27.7855 51.5998 27.7013 50.506C27.3648 50.4639 27.0282 50.4008 26.6917 50.3167C26.3972 50.2326 26.0817 50.1695 25.7452 50.1274C25.4507 50.0853 25.1773 50.0222 24.9249 49.9381C24.7566 49.854 24.5252 49.6857 24.2308 49.4333C23.9363 49.1388 23.6418 48.8233 23.3474 48.4868C23.0529 48.1502 22.8005 47.8347 22.5901 47.5403C22.3798 47.2037 22.2746 46.9513 22.2746 46.7831C22.2746 46.6989 22.7374 46.5937 23.6629 46.4675C24.6304 46.3413 25.8924 46.2362 27.4489 46.152C27.2807 43.7121 27.1124 41.2302 26.9441 38.7061C26.8179 36.14 26.7127 33.7632 26.6286 31.5757C26.5445 29.3462 26.5024 27.4111 26.5024 25.7704C26.5024 24.0877 26.5655 22.9309 26.6917 22.2999C26.86 21.4165 27.2596 20.5751 27.8906 19.7758C28.5637 18.9345 29.2788 18.1983 30.0361 17.5673C30.7933 16.9363 31.5084 16.4525 32.1815 16.116C32.8546 15.7794 33.2963 15.6743 33.5066 15.8005C33.6328 15.9267 33.738 16.4315 33.8221 17.3149C33.9483 18.1983 34.0325 19.3762 34.0745 20.8486C34.1587 22.3209 34.2007 24.0246 34.2007 25.9597C34.2007 27.8948 34.2007 29.9561 34.2007 32.1436C34.2007 34.2891 34.1587 36.5397 34.0745 38.8954C34.0325 41.2091 33.9904 43.5018 33.9483 45.7734C35.0421 45.6893 36.1148 45.6262 37.1665 45.5841C38.2602 45.5421 39.3329 45.479 40.3846 45.3948C40.3425 42.997 40.3005 40.5571 40.2584 38.0751C40.2584 35.5931 40.2584 33.2794 40.2584 31.134C40.2584 28.9886 40.3005 27.1166 40.3846 25.518C40.4688 23.9195 40.5739 22.8047 40.7001 22.1737C40.9105 21.2903 41.3522 20.4489 42.0252 19.6496C42.7404 18.8504 43.4766 18.1562 44.2338 17.5673C45.0331 16.9363 45.7692 16.4736 46.4423 16.1791C47.1575 15.8846 47.6202 15.8215 47.8305 15.9898C48.0409 16.116 48.1671 17.1046 48.2091 18.9555C48.2512 20.7644 48.2091 23.0571 48.0829 25.8335C47.9988 28.61 47.8516 31.723 47.6412 35.1725C47.473 38.5799 47.2626 41.9453 47.0102 45.2686C48.6929 45.2686 49.6184 45.3107 49.7867 45.3948ZM76.2891 22.9309C76.4994 23.1833 76.7097 23.8984 76.9201 25.0763C77.1304 26.2542 77.2776 27.5373 77.3618 28.9255C77.488 30.3137 77.5301 31.6178 77.488 32.8377C77.488 34.0577 77.3828 34.857 77.1725 35.2356C77.0042 35.488 76.5835 35.9507 75.9105 36.6238C75.2374 37.2548 74.4591 37.97 73.5757 38.7692C72.6923 39.5685 71.7668 40.3678 70.7993 41.1671C69.8738 41.9243 69.0535 42.5763 68.3383 43.1232C68.6749 43.7963 69.0956 44.6797 69.6004 45.7734C70.1052 46.8251 70.652 47.9609 71.241 49.1809C71.8299 50.3588 72.3978 51.5787 72.9447 52.8407C73.5337 54.1028 74.0595 55.2596 74.5222 56.3113C74.985 57.3209 75.3636 58.1833 75.6581 58.8984C75.9525 59.5715 76.0998 59.9712 76.0998 60.0974C76.0998 60.3077 75.9946 60.6022 75.7843 60.9808C75.616 61.3594 75.3846 61.7169 75.0901 62.0535C74.7957 62.348 74.4802 62.6004 74.1436 62.8107C73.8071 63.021 73.4916 63.0631 73.1971 62.9369C73.0288 62.8948 72.7133 62.5583 72.2506 61.9273C71.7879 61.2542 71.22 60.4339 70.5469 59.4663C69.9159 58.4567 69.2007 57.3209 68.4014 56.0589C67.6442 54.7969 66.866 53.5349 66.0667 52.2728C65.2674 50.9687 64.5102 49.7278 63.7951 48.5499C63.0799 47.3299 62.4489 46.2572 61.902 45.3317C61.8179 49.7067 61.7127 53.0721 61.5865 55.4279C61.5024 57.7837 61.4393 59.5084 61.3972 60.6022C61.3131 61.9062 61.229 62.6424 61.1448 62.8107C61.0186 62.8107 60.7452 62.6424 60.3245 62.3059C59.9038 61.9273 59.4621 61.4856 58.9994 60.9808C58.5367 60.476 58.095 59.9712 57.6743 59.4663C57.2957 58.9615 57.0643 58.5829 56.9802 58.3305C56.896 57.7837 56.7698 56.2061 56.6016 53.598C56.5174 52.4621 56.4333 51.0529 56.3492 49.3702C56.265 47.6875 56.1599 45.6472 56.0337 43.2494C55.9495 40.8516 55.8233 38.0331 55.6551 34.7939C55.4868 31.5547 55.3185 27.8317 55.1502 23.625C54.393 23.5829 53.7831 23.5829 53.3203 23.625C52.8576 23.625 52.5 23.646 52.2476 23.6881C51.9952 23.7302 51.8059 23.7512 51.6797 23.7512C51.5535 23.7091 51.4483 23.604 51.3642 23.4357C51.1959 23.0992 51.0697 22.5312 50.9856 21.732C50.9014 20.8906 50.8594 20.0913 50.8594 19.3341C50.8594 18.4928 50.9856 17.6514 51.238 16.8101C51.4483 15.9687 51.7218 15.4429 52.0583 15.2326C52.2266 15.1064 52.8155 15.1274 53.8251 15.2957C54.8347 15.4219 55.9495 15.5901 57.1695 15.8005C58.3894 16.0108 59.5463 16.2422 60.64 16.4946C61.7758 16.747 62.512 16.9153 62.8486 16.9994C63.143 17.0835 63.6268 17.2308 64.2999 17.4411C64.973 17.6094 65.7512 17.8618 66.6346 18.1983C67.518 18.4928 68.4435 18.8293 69.4111 19.2079C70.4207 19.5865 71.3672 19.9862 72.2506 20.4068C73.134 20.8275 73.9333 21.2482 74.6484 21.6689C75.3636 22.0895 75.9105 22.5102 76.2891 22.9309ZM62.0913 40.7254C62.47 40.515 62.9748 40.1154 63.6058 39.5264C64.2368 38.8954 64.9099 38.2013 65.625 37.4441C66.3822 36.6448 67.1394 35.8245 67.8966 34.9832C68.6538 34.0998 69.3269 33.2794 69.9159 32.5222C70.5469 31.765 71.0517 31.113 71.4303 30.5661C71.8089 30.0192 71.9982 29.6617 71.9982 29.4934C71.9982 29.1989 71.7248 28.8624 71.1779 28.4838C70.6731 28.0631 70 27.6424 69.1587 27.2218C68.3173 26.8011 67.3287 26.4014 66.1929 26.0228C65.0571 25.6022 63.9002 25.2446 62.7224 24.9501L62.0913 40.7254ZM81.4002 22.363C81.6106 21.9844 82.0523 21.5006 82.7254 20.9117C83.3984 20.2806 84.1977 19.6496 85.1232 19.0186C86.0908 18.3876 87.1214 17.8197 88.2152 17.3149C89.3089 16.768 90.4027 16.4105 91.4964 16.2422C92.6322 16.0318 93.6839 16.0739 94.6514 16.3684C95.6611 16.6208 96.5234 17.2097 97.2386 18.1352C97.6172 18.598 97.9748 19.5234 98.3113 20.9117C98.6478 22.2999 98.9633 23.9826 99.2578 25.9597C99.5944 27.8948 99.8888 30.0613 100.141 32.4591C100.394 34.8149 100.604 37.2338 100.772 39.7157C100.941 42.1556 101.046 44.5745 101.088 46.9724C101.172 49.3281 101.172 51.5156 101.088 53.5349C101.046 55.512 100.919 57.2157 100.709 58.646C100.541 60.0343 100.267 61.0018 99.8888 61.5487C99.1316 62.6424 97.9537 63.3786 96.3552 63.7572C94.7566 64.1358 93.0739 64.1358 91.3071 63.7572C89.5403 63.4207 87.8576 62.7055 86.259 61.6118C84.6605 60.518 83.4826 59.0457 82.7254 57.1947C82.2206 55.9748 81.7999 54.3131 81.4633 52.2097C81.1689 50.1064 80.9375 47.8347 80.7692 45.3948C80.601 42.9129 80.4958 40.3888 80.4537 37.8227C80.4537 35.2566 80.4748 32.9008 80.5168 30.7554C80.601 28.5679 80.7061 26.7169 80.8323 25.2025C81.0006 23.6881 81.1899 22.7416 81.4002 22.363ZM93.768 54.3552C94.0204 54.1028 94.1887 53.4297 94.2728 52.3359C94.399 51.2001 94.4621 49.875 94.4621 48.3606C94.5042 46.8041 94.5042 45.1635 94.4621 43.4387C94.4621 41.7139 94.4621 40.1154 94.4621 38.643C94.4621 34.899 94.3359 31.9964 94.0835 29.9351C93.8311 27.8738 93.5367 26.3383 93.2001 25.3287C92.8215 24.1508 92.4008 23.4147 91.9381 23.1202C91.3071 23.2464 90.7813 23.4567 90.3606 23.7512C89.9399 24.0036 89.6034 24.2981 89.351 24.6346C89.0565 25.0132 88.8251 25.4129 88.6569 25.8335C88.5307 26.2121 88.3834 26.9483 88.2152 28.0421C88.0889 29.1358 87.9627 30.4399 87.8365 31.9543C87.7103 33.4267 87.5841 35.0463 87.4579 36.8131C87.3738 38.5379 87.2897 40.2416 87.2055 41.9243C87.1635 43.607 87.1214 45.2055 87.0793 46.72C87.0793 48.1923 87.1004 49.4123 87.1424 50.3798C87.2266 51.8522 87.5631 52.9249 88.1521 53.598C88.7831 54.271 89.4561 54.7127 90.1713 54.9231C90.8864 55.0913 91.5805 55.0913 92.2536 54.9231C92.9688 54.7548 93.4736 54.5655 93.768 54.3552ZM128.6 18.7662C128.684 18.9345 128.726 19.5234 128.726 20.5331C128.768 21.5427 128.768 22.7626 128.726 24.1929C128.726 25.6232 128.684 27.1587 128.6 28.7993C128.516 30.3978 128.41 31.9123 128.284 33.3425C128.032 36.5397 127.737 39.6947 127.401 42.8077C127.064 45.9207 126.728 48.7181 126.391 51.2001C126.097 53.6821 125.802 55.7224 125.508 57.3209C125.255 58.8774 125.108 59.7398 125.066 59.9081C124.982 60.1184 124.793 60.4339 124.498 60.8546C124.204 61.2752 123.888 61.6959 123.552 62.1166C123.215 62.4952 122.879 62.8317 122.542 63.1262C122.248 63.4207 122.016 63.5679 121.848 63.5679C121.511 63.2734 120.901 62.1166 120.018 60.0974C119.639 59.2139 119.177 58.1202 118.63 56.8161C118.083 55.47 117.452 53.8293 116.737 51.8942C116.022 49.9591 115.18 47.6875 114.213 45.0793C113.287 42.4291 112.236 39.3582 111.058 35.8666C111.31 39.3161 111.52 42.345 111.689 44.9531C111.857 47.5613 111.983 49.8329 112.067 51.768C112.194 53.7031 112.278 55.3437 112.32 56.6899C112.362 57.994 112.383 59.0877 112.383 59.9712C112.383 61.9904 112.32 63.1472 112.194 63.4417C111.773 63.4417 111.31 63.2524 110.805 62.8738C110.343 62.4531 109.901 61.9694 109.48 61.4225C109.06 60.8335 108.681 60.2656 108.344 59.7187C108.05 59.1719 107.882 58.7722 107.84 58.5198C107.797 58.3516 107.671 57.5733 107.461 56.1851C107.251 54.7969 106.998 53.03 106.704 50.8846C106.451 48.6971 106.157 46.2572 105.82 43.5649C105.526 40.8305 105.231 38.0541 104.937 35.2356C104.685 32.4171 104.474 29.6827 104.306 27.0325C104.138 24.3401 104.053 21.9423 104.053 19.8389C104.053 19.5024 104.474 19.0607 105.316 18.5138C106.157 17.9249 107.103 17.378 108.155 16.8732C109.249 16.3263 110.258 15.8636 111.184 15.485C112.109 15.0643 112.677 14.854 112.888 14.854C113.056 14.854 113.224 15.3377 113.392 16.3053C113.603 17.2728 113.813 18.4928 114.023 19.9651C114.276 21.4375 114.549 23.0781 114.844 24.887C115.18 26.6959 115.538 28.4207 115.916 30.0613C116.253 31.8281 116.674 33.8263 117.178 36.0559C117.599 37.9489 118.125 40.2206 118.756 42.8708C119.429 45.521 120.207 48.4657 121.091 51.7049C121.091 49.4333 121.091 47.0144 121.091 44.4483C121.133 41.8822 121.175 39.3371 121.217 36.8131C121.259 34.2891 121.301 31.8702 121.343 29.5565C121.427 27.2007 121.49 25.1184 121.532 23.3095C121.617 21.5006 121.68 20.0493 121.722 18.9555C121.806 17.8618 121.869 17.2728 121.911 17.1887C122.037 17.0204 122.437 16.9784 123.11 17.0625C123.783 17.1046 124.519 17.2308 125.319 17.4411C126.118 17.6094 126.833 17.8407 127.464 18.1352C128.137 18.3876 128.516 18.598 128.6 18.7662ZM133.269 22.363C133.48 21.9844 133.921 21.5006 134.594 20.9117C135.267 20.2806 136.067 19.6496 136.992 19.0186C137.96 18.3876 138.99 17.8197 140.084 17.3149C141.178 16.768 142.272 16.4105 143.365 16.2422C144.501 16.0318 145.553 16.0739 146.52 16.3684C147.53 16.6208 148.392 17.2097 149.108 18.1352C149.486 18.598 149.844 19.5234 150.18 20.9117C150.517 22.2999 150.832 23.9826 151.127 25.9597C151.463 27.8948 151.758 30.0613 152.01 32.4591C152.263 34.8149 152.473 37.2338 152.641 39.7157C152.81 42.1556 152.915 44.5745 152.957 46.9724C153.041 49.3281 153.041 51.5156 152.957 53.5349C152.915 55.512 152.788 57.2157 152.578 58.646C152.41 60.0343 152.136 61.0018 151.758 61.5487C151.001 62.6424 149.823 63.3786 148.224 63.7572C146.626 64.1358 144.943 64.1358 143.176 63.7572C141.409 63.4207 139.727 62.7055 138.128 61.6118C136.529 60.518 135.352 59.0457 134.594 57.1947C134.09 55.9748 133.669 54.3131 133.332 52.2097C133.038 50.1064 132.806 47.8347 132.638 45.3948C132.47 42.9129 132.365 40.3888 132.323 37.8227C132.323 35.2566 132.344 32.9008 132.386 30.7554C132.47 28.5679 132.575 26.7169 132.701 25.2025C132.87 23.6881 133.059 22.7416 133.269 22.363ZM145.637 54.3552C145.889 54.1028 146.058 53.4297 146.142 52.3359C146.268 51.2001 146.331 49.875 146.331 48.3606C146.373 46.8041 146.373 45.1635 146.331 43.4387C146.331 41.7139 146.331 40.1154 146.331 38.643C146.331 34.899 146.205 31.9964 145.953 29.9351C145.7 27.8738 145.406 26.3383 145.069 25.3287C144.691 24.1508 144.27 23.4147 143.807 23.1202C143.176 23.2464 142.65 23.4567 142.23 23.7512C141.809 24.0036 141.472 24.2981 141.22 24.6346C140.925 25.0132 140.694 25.4129 140.526 25.8335C140.4 26.2121 140.252 26.9483 140.084 28.0421C139.958 29.1358 139.832 30.4399 139.706 31.9543C139.579 33.4267 139.453 35.0463 139.327 36.8131C139.243 38.5379 139.159 40.2416 139.075 41.9243C139.032 43.607 138.99 45.2055 138.948 46.72C138.948 48.1923 138.969 49.4123 139.011 50.3798C139.096 51.8522 139.432 52.9249 140.021 53.598C140.652 54.271 141.325 54.7127 142.04 54.9231C142.755 55.0913 143.45 55.0913 144.123 54.9231C144.838 54.7548 145.343 54.5655 145.637 54.3552ZM187.347 19.4603C187.431 19.6286 187.473 20.2175 187.473 21.2272C187.515 22.2368 187.515 23.4567 187.473 24.887C187.473 26.3173 187.431 27.8528 187.347 29.4934C187.263 31.0919 187.157 32.6064 187.031 34.0367C186.947 34.8359 186.8 36.0349 186.59 37.6334C186.421 39.232 186.211 40.9988 185.959 42.9339C185.706 44.869 185.433 46.8672 185.138 48.9285C184.886 50.9477 184.633 52.8197 184.381 54.5445C184.129 56.2272 183.897 57.6364 183.687 58.7722C183.519 59.9081 183.392 60.518 183.308 60.6022C183.14 60.7284 182.867 61.0439 182.488 61.5487C182.109 62.0114 181.689 62.4952 181.226 63C180.805 63.4627 180.406 63.8413 180.027 64.1358C179.648 64.4303 179.396 64.4724 179.27 64.262C179.186 63.8413 179.144 62.5373 179.144 60.3498C179.144 59.4243 179.144 58.2674 179.144 56.8792C179.186 55.4489 179.228 53.7242 179.27 51.7049C179.354 49.6857 179.459 47.3299 179.585 44.6376C179.712 41.9453 179.859 38.8323 180.027 35.2987C179.186 38.1593 178.428 40.6833 177.755 42.8708C177.124 45.0583 176.556 46.9724 176.052 48.613C175.589 50.2115 175.189 51.5787 174.853 52.7145C174.516 53.8083 174.222 54.7127 173.969 55.4279C173.422 57.1106 173.065 58.0992 172.897 58.3936C172.728 58.4357 172.455 58.3095 172.076 58.015C171.74 57.7206 171.34 57.2999 170.877 56.753C170.457 56.1641 170.015 55.47 169.552 54.6707C169.132 53.8714 168.774 52.988 168.48 52.0204C168.185 51.137 167.806 49.9591 167.344 48.4868C166.923 47.2248 166.376 45.5841 165.703 43.5649C165.03 41.5036 164.21 38.9375 163.242 35.8666C163.495 39.3161 163.705 42.345 163.873 44.9531C164.041 47.5613 164.168 49.8329 164.252 51.768C164.378 53.7031 164.462 55.3437 164.504 56.6899C164.588 57.994 164.63 59.0877 164.63 59.9712C164.672 61.9904 164.609 63.1472 164.441 63.4417C164.02 63.4417 163.558 63.2524 163.053 62.8738C162.59 62.4531 162.127 61.9694 161.665 61.4225C161.244 60.8335 160.865 60.2656 160.529 59.7187C160.234 59.1719 160.066 58.7722 160.024 58.5198C159.982 58.3516 159.856 57.5733 159.645 56.1851C159.435 54.7969 159.183 53.03 158.888 50.8846C158.636 48.6971 158.341 46.2572 158.005 43.5649C157.71 40.8305 157.416 38.0541 157.121 35.2356C156.869 32.4171 156.659 29.6827 156.49 27.0325C156.322 24.3401 156.238 21.9423 156.238 19.8389C156.238 19.5024 156.659 19.0607 157.5 18.5138C158.341 17.9249 159.288 17.378 160.34 16.8732C161.433 16.3263 162.443 15.8636 163.368 15.485C164.294 15.0643 164.862 14.854 165.072 14.854C165.24 14.854 165.409 15.3377 165.577 16.3053C165.787 17.2728 166.019 18.4928 166.271 19.9651C166.523 21.4375 166.797 23.0781 167.091 24.887C167.386 26.6959 167.722 28.4207 168.101 30.0613C168.395 31.744 168.753 33.4898 169.174 35.2987C169.51 36.8552 169.889 38.5799 170.31 40.473C170.772 42.3239 171.277 44.1328 171.824 45.8996C172.413 43.3335 172.939 41.0198 173.401 38.9585C173.906 36.8552 174.348 35.0673 174.727 33.595C175.189 31.8702 175.589 30.3347 175.925 28.9886C176.683 25.7073 177.419 23.1202 178.134 21.2272C178.891 19.3341 179.375 18.2193 179.585 17.8828C179.712 17.7145 180.153 17.6725 180.91 17.7566C181.71 17.8407 182.572 17.988 183.498 18.1983C184.423 18.3666 185.264 18.5769 186.022 18.8293C186.821 19.0817 187.263 19.2921 187.347 19.4603ZM209.18 14.4123C209.306 14.5805 209.453 15.4429 209.621 16.9994C209.832 18.5138 210.042 20.4068 210.252 22.6785C210.505 24.9501 210.757 27.4321 211.01 30.1244C211.262 32.7746 211.493 35.3407 211.704 37.8227C211.914 40.2626 212.103 42.4501 212.272 44.3852C212.44 46.2782 212.566 47.6034 212.65 48.3606C212.776 49.4964 212.966 50.8846 213.218 52.5252C213.513 54.1659 213.786 55.7855 214.038 57.384C214.333 58.9405 214.564 60.3077 214.733 61.4856C214.901 62.6635 214.922 63.3576 214.796 63.5679C214.669 63.7782 214.249 63.7572 213.534 63.5048C212.819 63.2524 212.04 62.8948 211.199 62.4321C210.358 61.9694 209.558 61.4645 208.801 60.9177C208.086 60.3708 207.623 59.9081 207.413 59.5294C207.203 59.1088 206.971 58.4147 206.719 57.4471C206.466 56.4375 206.193 55.1124 205.898 53.4718C205.352 54.4814 204.742 55.512 204.069 56.5637C203.395 57.6154 202.743 58.5829 202.112 59.4663C201.481 60.3498 200.892 61.0859 200.346 61.6749C199.841 62.2218 199.462 62.4742 199.21 62.4321C198.789 62.39 198.137 61.8431 197.254 60.7915C196.412 59.6977 195.55 58.4778 194.666 57.1316C193.783 55.7434 192.984 54.4393 192.269 53.2194C191.596 51.9573 191.217 51.116 191.133 50.6953C191.091 50.4429 191.07 49.875 191.07 48.9916C191.07 48.0661 191.07 46.9724 191.07 45.7103C191.112 44.4483 191.154 43.0811 191.196 41.6088C191.28 40.0944 191.343 38.622 191.385 37.1917C191.469 35.7193 191.532 34.3311 191.575 33.027C191.659 31.723 191.743 30.6502 191.827 29.8089C191.911 28.5048 192.016 27.1587 192.142 25.7704C192.311 24.3401 192.458 23.015 192.584 21.7951C192.752 20.5751 192.9 19.5445 193.026 18.7031C193.194 17.8197 193.341 17.2728 193.468 17.0625C193.552 16.8942 193.804 16.7891 194.225 16.747C194.688 16.7049 195.192 16.747 195.739 16.8732C196.286 16.9573 196.791 17.1256 197.254 17.378C197.716 17.5883 198.032 17.8618 198.2 18.1983C198.284 18.4087 198.326 19.25 198.326 20.7224C198.368 22.1526 198.389 23.8774 198.389 25.8966C198.389 27.9159 198.368 30.1034 198.326 32.4591C198.326 34.7728 198.305 36.9603 198.263 39.0216C198.221 41.0829 198.179 42.8498 198.137 44.3221C198.137 45.7524 198.137 46.5937 198.137 46.8462C198.137 47.3089 198.453 48.0451 199.084 49.0547C199.757 50.0222 200.367 51.2001 200.913 52.5883L204.889 48.1082C204.847 46.9303 204.805 45.4159 204.763 43.5649C204.763 41.7139 204.742 39.7578 204.7 37.6965C204.657 35.5931 204.615 33.4898 204.573 31.3864C204.573 29.241 204.573 27.2849 204.573 25.518C204.573 23.7512 204.573 22.2999 204.573 21.1641C204.615 19.9862 204.657 19.3131 204.7 19.1448C204.826 18.8083 205.078 18.3245 205.457 17.6935C205.877 17.0204 206.319 16.4105 206.782 15.8636C207.245 15.2746 207.707 14.8119 208.17 14.4754C208.633 14.1388 208.969 14.1178 209.18 14.4123ZM239.216 24.8239C239.258 25.4549 239.174 26.4014 238.963 27.6635C238.795 28.9255 238.501 30.1875 238.08 31.4495C237.659 32.7115 237.112 33.8263 236.439 34.7939C235.808 35.7193 235.072 36.1821 234.231 36.1821C233.81 36.1821 233.453 35.9297 233.158 35.4249C232.864 34.9201 232.611 34.268 232.401 33.4687C232.191 32.6695 232.022 31.7861 231.896 30.8185C231.77 29.8089 231.644 28.8413 231.517 27.9159C231.433 26.9904 231.349 26.149 231.265 25.3918C231.223 24.5925 231.181 24.0036 231.139 23.625C230.971 23.3726 230.655 23.1202 230.192 22.8678C229.772 22.5733 229.393 22.4261 229.056 22.4261C228.678 22.4261 228.215 22.7837 227.668 23.4988C227.163 24.2139 226.68 25.0553 226.217 26.0228C225.754 26.9904 225.376 27.9579 225.081 28.9255C224.787 29.851 224.66 30.5661 224.703 31.0709C224.703 31.4075 225.018 31.9964 225.649 32.8377C226.322 33.6791 227.142 34.6677 228.11 35.8035C229.078 36.9393 230.129 38.1803 231.265 39.5264C232.401 40.8305 233.453 42.1346 234.42 43.4387C235.388 44.7428 236.208 45.9838 236.881 47.1617C237.554 48.3395 237.912 49.3492 237.954 50.1905C238.038 51.2001 237.806 52.5042 237.26 54.1028C236.755 55.6593 236.103 57.1737 235.303 58.646C234.504 60.1184 233.642 61.4014 232.716 62.4952C231.833 63.5469 231.034 64.0938 230.319 64.1358C229.856 64.1779 229.246 63.9675 228.489 63.5048C227.731 63.0841 226.911 62.5162 226.028 61.8011C225.144 61.0859 224.24 60.3077 223.314 59.4663C222.431 58.5829 221.59 57.7206 220.79 56.8792C220.033 56.0379 219.381 55.2806 218.834 54.6076C218.329 53.8924 218.035 53.3666 217.951 53.03C217.782 52.5252 217.677 51.8522 217.635 51.0108C217.635 50.1274 217.677 49.2861 217.761 48.4868C217.888 47.6454 218.035 46.9303 218.203 46.3413C218.413 45.7103 218.666 45.3948 218.96 45.3948C219.171 45.3948 219.507 45.6683 219.97 46.2151C220.475 46.762 221.043 47.4561 221.674 48.2975C222.305 49.1388 222.978 50.0643 223.693 51.0739C224.45 52.0415 225.165 52.9459 225.838 53.7873C226.511 54.6286 227.121 55.3437 227.668 55.9327C228.215 56.4796 228.657 56.732 228.993 56.6899C229.246 56.6899 229.519 56.5006 229.814 56.122C230.108 55.7013 230.382 55.2175 230.634 54.6707C230.886 54.0817 231.097 53.4928 231.265 52.9038C231.433 52.3149 231.517 51.8522 231.517 51.5156C231.475 51.0108 231.055 50.2957 230.255 49.3702C229.498 48.4026 228.531 47.3299 227.353 46.152C226.217 44.9321 224.976 43.6701 223.63 42.366C222.326 41.0619 221.085 39.8209 219.907 38.643C218.771 37.4231 217.803 36.3293 217.004 35.3618C216.247 34.3942 215.847 33.6581 215.805 33.1532C215.763 32.6484 215.91 31.8702 216.247 30.8185C216.584 29.7248 217.025 28.5048 217.572 27.1587C218.161 25.8125 218.813 24.4453 219.528 23.0571C220.243 21.6689 220.98 20.3858 221.737 19.2079C222.494 18.03 223.23 17.0835 223.945 16.3684C224.66 15.6112 225.291 15.2326 225.838 15.2326C226.553 15.2326 227.374 15.4008 228.299 15.7374C229.225 16.0318 230.171 16.4525 231.139 16.9994C232.148 17.5042 233.116 18.0931 234.041 18.7662C235.009 19.4393 235.871 20.1334 236.629 20.8486C237.386 21.5216 237.996 22.2157 238.459 22.9309C238.921 23.604 239.174 24.235 239.216 24.8239ZM261.049 26.8431C260.88 27.0535 259.85 27.0745 257.957 26.9062C256.064 26.738 253.077 26.4645 248.996 26.0859C248.996 27.4742 248.996 29.1779 248.996 31.1971C249.038 33.2163 249.038 35.3828 248.996 37.6965C252.151 37.991 254.612 38.2644 256.379 38.5168C258.146 38.7692 259.072 38.9375 259.156 39.0216C259.324 39.1899 259.387 39.5475 259.345 40.0944C259.303 40.5992 259.198 41.1671 259.029 41.7981C258.861 42.4291 258.651 43.0391 258.398 43.628C258.146 44.1749 257.894 44.5325 257.641 44.7007C257.431 44.7849 256.59 44.9111 255.117 45.0793C253.687 45.2055 251.647 45.3317 248.996 45.4579C248.996 47.2668 248.975 49.0547 248.933 50.8215C248.933 52.5883 248.912 54.2079 248.87 55.6803C252.951 55.7224 255.916 55.8065 257.767 55.9327C259.66 56.0168 260.691 56.143 260.859 56.3113C261.028 56.5216 261.028 56.9213 260.859 57.5102C260.733 58.0992 260.502 58.7302 260.165 59.4032C259.871 60.0343 259.534 60.6653 259.156 61.2963C258.819 61.9273 258.546 62.369 258.335 62.6214C258.251 62.7055 257.746 62.7476 256.821 62.7476C255.895 62.7055 254.865 62.6424 253.729 62.5583C252.593 62.4742 251.499 62.39 250.448 62.3059C249.396 62.1797 248.702 62.0745 248.365 61.9904C247.734 61.78 247.061 61.4435 246.346 60.9808C245.631 60.476 245.063 59.845 244.642 59.0877C244.558 58.8774 244.411 58.1833 244.201 57.0054C244.032 55.7855 243.843 54.25 243.633 52.399C243.422 50.5481 243.212 48.4657 243.002 46.152C242.791 43.8383 242.581 41.4826 242.371 39.0847C242.16 36.6869 241.971 34.3311 241.803 32.0174C241.635 29.7037 241.487 27.6214 241.361 25.7704C241.277 23.8774 241.235 22.3209 241.235 21.101C241.235 19.8389 241.298 19.0817 241.424 18.8293C241.55 18.4928 242.139 18.2404 243.191 18.0721C244.243 17.9038 245.505 17.7987 246.977 17.7566C248.45 17.6725 250.027 17.6514 251.71 17.6935C253.435 17.7356 255.033 17.8197 256.505 17.9459C257.978 18.03 259.219 18.1562 260.228 18.3245C261.238 18.4507 261.806 18.5769 261.932 18.7031C262.1 18.9135 262.185 19.3972 262.185 20.1544C262.227 20.9117 262.185 21.753 262.058 22.6785C261.974 23.5619 261.827 24.4243 261.617 25.2656C261.448 26.0649 261.259 26.5907 261.049 26.8431ZM279.853 23.7512C279.138 23.7933 278.422 23.8143 277.707 23.8143C277.034 23.7722 276.403 23.7512 275.814 23.7512C275.141 23.7512 274.51 23.7302 273.921 23.6881C274.005 25.9177 274.026 28.5258 273.984 31.5126C273.984 34.4573 273.942 37.4862 273.858 40.5992C273.816 43.7121 273.732 46.762 273.606 49.7488C273.522 52.6935 273.416 55.3017 273.29 57.5733C274.889 57.5312 276.298 57.5312 277.518 57.5733C278.738 57.6154 279.39 57.6785 279.474 57.7626C279.558 57.8888 279.558 58.3095 279.474 59.0246C279.39 59.6977 279.264 60.4549 279.096 61.2963C278.927 62.0956 278.759 62.8317 278.591 63.5048C278.422 64.22 278.296 64.6617 278.212 64.8299C277.034 64.872 275.941 64.872 274.931 64.8299C273.963 64.8299 273.122 64.7879 272.407 64.7037C271.566 64.6617 270.808 64.5986 270.135 64.5144C269.462 64.3882 268.747 64.241 267.99 64.0727C267.359 63.9044 266.623 63.6941 265.781 63.4417C264.982 63.1893 264.162 62.8738 263.32 62.4952C263.152 62.4111 262.942 62.1797 262.689 61.8011C262.479 61.4225 262.248 61.0228 261.995 60.6022C261.785 60.1394 261.617 59.6977 261.49 59.277C261.322 58.8564 261.238 58.5619 261.238 58.3936C261.238 58.3516 261.427 58.3095 261.806 58.2674C262.185 58.1833 262.71 58.1202 263.383 58.0781C264.056 57.994 264.814 57.9309 265.655 57.8888C266.496 57.8047 267.401 57.7416 268.368 57.6995C268.284 56.4796 268.158 54.881 267.99 52.9038C267.864 50.8846 267.716 48.7181 267.548 46.4044C267.422 44.0487 267.275 41.6508 267.106 39.2109C266.98 36.729 266.875 34.4363 266.791 32.3329C266.707 30.1875 266.665 28.3155 266.665 26.7169C266.665 25.1184 266.728 24.0036 266.854 23.3726C266.896 23.2885 266.917 23.2254 266.917 23.1833C266.917 23.0992 266.938 23.015 266.98 22.9309L265.213 22.4892C264.709 22.363 264.162 22.2157 263.573 22.0475C262.984 21.8792 262.395 21.6899 261.806 21.4796C261.638 21.3954 261.427 21.1641 261.175 20.7855C260.88 20.4068 260.607 19.9862 260.355 19.5234C260.06 19.0607 259.829 18.64 259.66 18.2614C259.45 17.8407 259.345 17.5463 259.345 17.378C259.345 17.2939 259.892 17.2097 260.986 17.1256C262.037 16.9994 263.362 16.8942 264.961 16.8101C266.56 16.726 268.284 16.6629 270.135 16.6208C272.028 16.5787 273.774 16.5577 275.373 16.5577C277.013 16.5577 278.38 16.5787 279.474 16.6208C280.61 16.6208 281.22 16.6629 281.304 16.747C281.43 16.8732 281.43 17.2939 281.304 18.009C281.22 18.6821 281.073 19.4393 280.862 20.2806C280.694 21.0799 280.505 21.8371 280.294 22.5523C280.126 23.2254 279.979 23.625 279.853 23.7512ZM283.323 22.363C283.534 21.9844 283.975 21.5006 284.648 20.9117C285.322 20.2806 286.121 19.6496 287.046 19.0186C288.014 18.3876 289.044 17.8197 290.138 17.3149C291.232 16.768 292.326 16.4105 293.419 16.2422C294.555 16.0318 295.607 16.0739 296.575 16.3684C297.584 16.6208 298.447 17.2097 299.162 18.1352C299.54 18.598 299.898 19.5234 300.234 20.9117C300.571 22.2999 300.886 23.9826 301.181 25.9597C301.517 27.8948 301.812 30.0613 302.064 32.4591C302.317 34.8149 302.527 37.2338 302.695 39.7157C302.864 42.1556 302.969 44.5745 303.011 46.9724C303.095 49.3281 303.095 51.5156 303.011 53.5349C302.969 55.512 302.843 57.2157 302.632 58.646C302.464 60.0343 302.191 61.0018 301.812 61.5487C301.055 62.6424 299.877 63.3786 298.278 63.7572C296.68 64.1358 294.997 64.1358 293.23 63.7572C291.463 63.4207 289.781 62.7055 288.182 61.6118C286.584 60.518 285.406 59.0457 284.648 57.1947C284.144 55.9748 283.723 54.3131 283.386 52.2097C283.092 50.1064 282.861 47.8347 282.692 45.3948C282.524 42.9129 282.419 40.3888 282.377 37.8227C282.377 35.2566 282.398 32.9008 282.44 30.7554C282.524 28.5679 282.629 26.7169 282.755 25.2025C282.924 23.6881 283.113 22.7416 283.323 22.363ZM295.691 54.3552C295.944 54.1028 296.112 53.4297 296.196 52.3359C296.322 51.2001 296.385 49.875 296.385 48.3606C296.427 46.8041 296.427 45.1635 296.385 43.4387C296.385 41.7139 296.385 40.1154 296.385 38.643C296.385 34.899 296.259 31.9964 296.007 29.9351C295.754 27.8738 295.46 26.3383 295.123 25.3287C294.745 24.1508 294.324 23.4147 293.861 23.1202C293.23 23.2464 292.704 23.4567 292.284 23.7512C291.863 24.0036 291.526 24.2981 291.274 24.6346C290.98 25.0132 290.748 25.4129 290.58 25.8335C290.454 26.2121 290.306 26.9483 290.138 28.0421C290.012 29.1358 289.886 30.4399 289.76 31.9543C289.633 33.4267 289.507 35.0463 289.381 36.8131C289.297 38.5379 289.213 40.2416 289.129 41.9243C289.087 43.607 289.044 45.2055 289.002 46.72C289.002 48.1923 289.023 49.4123 289.066 50.3798C289.15 51.8522 289.486 52.9249 290.075 53.598C290.706 54.271 291.379 54.7127 292.094 54.9231C292.809 55.0913 293.504 55.0913 294.177 54.9231C294.892 54.7548 295.397 54.5655 295.691 54.3552ZM325.727 14.4123C325.853 14.5805 326.001 15.4429 326.169 16.9994C326.379 18.5138 326.59 20.4068 326.8 22.6785C327.052 24.9501 327.305 27.4321 327.557 30.1244C327.81 32.7746 328.041 35.3407 328.251 37.8227C328.462 40.2626 328.651 42.4501 328.819 44.3852C328.987 46.2782 329.114 47.6034 329.198 48.3606C329.324 49.4964 329.513 50.8846 329.766 52.5252C330.06 54.1659 330.334 55.7855 330.586 57.384C330.88 58.9405 331.112 60.3077 331.28 61.4856C331.448 62.6635 331.469 63.3576 331.343 63.5679C331.217 63.7782 330.796 63.7572 330.081 63.5048C329.366 63.2524 328.588 62.8948 327.746 62.4321C326.905 61.9694 326.106 61.4645 325.349 60.9177C324.633 60.3708 324.171 59.9081 323.96 59.5294C323.75 59.1088 323.519 58.4147 323.266 57.4471C323.014 56.4375 322.74 55.1124 322.446 53.4718C321.899 54.4814 321.289 55.512 320.616 56.5637C319.943 57.6154 319.291 58.5829 318.66 59.4663C318.029 60.3498 317.44 61.0859 316.893 61.6749C316.388 62.2218 316.01 62.4742 315.757 62.4321C315.337 62.39 314.685 61.8431 313.801 60.7915C312.96 59.6977 312.097 58.4778 311.214 57.1316C310.331 55.7434 309.531 54.4393 308.816 53.2194C308.143 51.9573 307.764 51.116 307.68 50.6953C307.638 50.4429 307.617 49.875 307.617 48.9916C307.617 48.0661 307.617 46.9724 307.617 45.7103C307.659 44.4483 307.701 43.0811 307.743 41.6088C307.828 40.0944 307.891 38.622 307.933 37.1917C308.017 35.7193 308.08 34.3311 308.122 33.027C308.206 31.723 308.29 30.6502 308.374 29.8089C308.459 28.5048 308.564 27.1587 308.69 25.7704C308.858 24.3401 309.005 23.015 309.132 21.7951C309.3 20.5751 309.447 19.5445 309.573 18.7031C309.742 17.8197 309.889 17.2728 310.015 17.0625C310.099 16.8942 310.352 16.7891 310.772 16.747C311.235 16.7049 311.74 16.747 312.287 16.8732C312.834 16.9573 313.338 17.1256 313.801 17.378C314.264 17.5883 314.579 17.8618 314.748 18.1983C314.832 18.4087 314.874 19.25 314.874 20.7224C314.916 22.1526 314.937 23.8774 314.937 25.8966C314.937 27.9159 314.916 30.1034 314.874 32.4591C314.874 34.7728 314.853 36.9603 314.811 39.0216C314.769 41.0829 314.727 42.8498 314.685 44.3221C314.685 45.7524 314.685 46.5937 314.685 46.8462C314.685 47.3089 315 48.0451 315.631 49.0547C316.304 50.0222 316.914 51.2001 317.461 52.5883L321.436 48.1082C321.394 46.9303 321.352 45.4159 321.31 43.5649C321.31 41.7139 321.289 39.7578 321.247 37.6965C321.205 35.5931 321.163 33.4898 321.121 31.3864C321.121 29.241 321.121 27.2849 321.121 25.518C321.121 23.7512 321.121 22.2999 321.121 21.1641C321.163 19.9862 321.205 19.3131 321.247 19.1448C321.373 18.8083 321.626 18.3245 322.004 17.6935C322.425 17.0204 322.867 16.4105 323.329 15.8636C323.792 15.2746 324.255 14.8119 324.718 14.4754C325.18 14.1388 325.517 14.1178 325.727 14.4123ZM357.215 18.7662C357.299 18.9345 357.341 19.5234 357.341 20.5331C357.383 21.5427 357.383 22.7626 357.341 24.1929C357.341 25.6232 357.299 27.1587 357.215 28.7993C357.13 30.3978 357.025 31.9123 356.899 33.3425C356.647 36.5397 356.352 39.6947 356.016 42.8077C355.679 45.9207 355.343 48.7181 355.006 51.2001C354.712 53.6821 354.417 55.7224 354.123 57.3209C353.87 58.8774 353.723 59.7398 353.681 59.9081C353.597 60.1184 353.407 60.4339 353.113 60.8546C352.819 61.2752 352.503 61.6959 352.166 62.1166C351.83 62.4952 351.493 62.8317 351.157 63.1262C350.862 63.4207 350.631 63.5679 350.463 63.5679C350.126 63.2734 349.516 62.1166 348.633 60.0974C348.254 59.2139 347.791 58.1202 347.245 56.8161C346.698 55.47 346.067 53.8293 345.352 51.8942C344.636 49.9591 343.795 47.6875 342.828 45.0793C341.902 42.4291 340.85 39.3582 339.672 35.8666C339.925 39.3161 340.135 42.345 340.304 44.9531C340.472 47.5613 340.598 49.8329 340.682 51.768C340.808 53.7031 340.892 55.3437 340.935 56.6899C340.977 57.994 340.998 59.0877 340.998 59.9712C340.998 61.9904 340.935 63.1472 340.808 63.4417C340.388 63.4417 339.925 63.2524 339.42 62.8738C338.957 62.4531 338.516 61.9694 338.095 61.4225C337.674 60.8335 337.296 60.2656 336.959 59.7187C336.665 59.1719 336.496 58.7722 336.454 58.5198C336.412 58.3516 336.286 57.5733 336.076 56.1851C335.865 54.7969 335.613 53.03 335.319 50.8846C335.066 48.6971 334.772 46.2572 334.435 43.5649C334.141 40.8305 333.846 38.0541 333.552 35.2356C333.299 32.4171 333.089 29.6827 332.921 27.0325C332.752 24.3401 332.668 21.9423 332.668 19.8389C332.668 19.5024 333.089 19.0607 333.93 18.5138C334.772 17.9249 335.718 17.378 336.77 16.8732C337.864 16.3263 338.873 15.8636 339.799 15.485C340.724 15.0643 341.292 14.854 341.502 14.854C341.671 14.854 341.839 15.3377 342.007 16.3053C342.218 17.2728 342.428 18.4928 342.638 19.9651C342.891 21.4375 343.164 23.0781 343.459 24.887C343.795 26.6959 344.153 28.4207 344.531 30.0613C344.868 31.8281 345.288 33.8263 345.793 36.0559C346.214 37.9489 346.74 40.2206 347.371 42.8708C348.044 45.521 348.822 48.4657 349.706 51.7049C349.706 49.4333 349.706 47.0144 349.706 44.4483C349.748 41.8822 349.79 39.3371 349.832 36.8131C349.874 34.2891 349.916 31.8702 349.958 29.5565C350.042 27.2007 350.105 25.1184 350.147 23.3095C350.231 21.5006 350.294 20.0493 350.337 18.9555C350.421 17.8618 350.484 17.2728 350.526 17.1887C350.652 17.0204 351.052 16.9784 351.725 17.0625C352.398 17.1046 353.134 17.2308 353.933 17.4411C354.733 17.6094 355.448 17.8407 356.079 18.1352C356.752 18.3876 357.13 18.598 357.215 18.7662Z" fill="black"/>
</svg>
